<svg xmlns="http://www.w3.org/2000/svg" viewBox="0 0 100 100">
  <defs>
    <linearGradient id="flame" x1="50%" y1="0%" x2="50%" y2="100%">
      <stop offset="0%" stop-color="#FF6B35"/>
      <stop offset="100%" stop-color="#D32F2F"/>
    </linearGradient>
  </defs>
  <!-- Fondo circular -->
  <circle cx="50" cy="50" r="46" fill="#1B5E20" />
  <circle cx="50" cy="50" r="40" fill="none" stroke="#FF6B35" stroke-width="1.5" opacity="0.4"/>
  <!-- Ave fénix estilizada -->
  <path d="M50 22 C58 22 65 28 68 36 C72 44 70 52 64 58 C70 56 76 52 78 46 C80 40 78 34 74 30 C70 26 64 24 58 26 C52 28 48 32 46 38 C44 44 44 50 48 54 C52 58 58 58 62 56 C66 54 68 50 68 46"
        fill="none" stroke="#FF6B35" stroke-width="2.5" stroke-linecap="round"/>
  <!-- Ala izquierda -->
  <path d="M46 38 C38 34 30 36 26 42 C22 48 24 56 30 60 C36 64 44 62 48 56"
        fill="none" stroke="#FFB74D" stroke-width="2" stroke-linecap="round"/>
  <!-- Cola de fuego -->
  <path d="M50 54 C48 62 44 68 40 72 C36 76 38 80 42 78 C46 76 48 72 50 68"
        fill="none" stroke="#FF6B35" stroke-width="2" stroke-linecap="round"/>
  <path d="M50 54 C52 62 56 68 60 72 C64 76 62 80 58 78 C54 76 52 72 50 68"
        fill="none" stroke="#FF6B35" stroke-width="2" stroke-linecap="round"/>
  <!-- Estrella/ceniza -->
  <circle cx="38" cy="22" r="1.5" fill="#FFD54F" opacity="0.8"/>
  <circle cx="66" cy="26" r="1" fill="#FFD54F" opacity="0.6"/>
  <circle cx="28" cy="48" r="1" fill="#FFD54F" opacity="0.5"/>
</svg>
